<?xml version="1.0" encoding="UTF-8" standalone="no"?>
<svg
   xmlns:dc="http://purl.org/dc/elements/1.1/"
   xmlns:cc="http://creativecommons.org/ns#"
   xmlns:rdf="http://www.w3.org/1999/02/22-rdf-syntax-ns#"
   xmlns:svg="http://www.w3.org/2000/svg"
   xmlns="http://www.w3.org/2000/svg"
   xmlns:sodipodi="http://sodipodi.sourceforge.net/DTD/sodipodi-0.dtd"
   xmlns:inkscape="http://www.inkscape.org/namespaces/inkscape"
   version="1.1"
   id="Layer_1"
   x="0px"
   y="0px"
   width="100"
   height="100"
   viewBox="0 0 99.999998 99.999998"
   enable-background="new 0 0 595.28 841.89"
   xml:space="preserve"
   sodipodi:docname="hswro.svg"
   inkscape:version="1.0.1 (3bc2e813f5, 2020-09-07)"><metadata
   id="metadata941"><rdf:RDF><cc:Work
       rdf:about=""><dc:format>image/svg+xml</dc:format><dc:type
         rdf:resource="http://purl.org/dc/dcmitype/StillImage" /><dc:title></dc:title></cc:Work></rdf:RDF></metadata><defs
   id="defs939">
	
	
</defs><sodipodi:namedview
   pagecolor="#ffffff"
   bordercolor="#666666"
   borderopacity="1"
   objecttolerance="10"
   gridtolerance="10"
   guidetolerance="10"
   inkscape:pageopacity="0"
   inkscape:pageshadow="2"
   inkscape:window-width="1920"
   inkscape:window-height="1027"
   id="namedview937"
   showgrid="false"
   inkscape:zoom="2.8590332"
   inkscape:cx="95.237875"
   inkscape:cy="137.49347"
   inkscape:window-x="-8"
   inkscape:window-y="-8"
   inkscape:window-maximized="1"
   inkscape:current-layer="Layer_1" />

<path
   d="m 72.207,33.822 5.733,-1.434 2.004,-20.054 h -29.143 -1 -9.233 l 0.816,29.389 -3.892,-1.245 -1.563,-28.144 h -8.99 -0.462 -6.421 l 6.043,58.737 0.023,0.225 5.458,3.898 7.323,-3.675 -0.71,-15.638 12.109,5.39 11.807,-5.294 -0.348,7.586 -4.04,2.103 -7.418,-3.604 -7.94,3.813 0.46,16.886 7.486,4.905 23.666,-16.522 3.162,-30.573 -8.386,-1.699 -9.732,2.948 0.537,-15.876 4.069,-0.606 -0.229,7.37 z M 34.982,13.334 36.49,40.465 29.323,42.257 27.018,13.334 Z m -2.924,60.5 -1.897,-21.528 7.009,3.12 0.704,15.49 z m -1.409,-30.878 6.346,-1.586 4.418,1.413 0.106,3.828 z m 27.649,23.536 4.434,-2.309 0.003,-0.073 5.993,2.912 -10.739,6.665 z m -7.998,-3.32 6.316,3.068 -6.314,3.287 -6.317,-3.321 z m 18.501,-23.27 5.902,1.196 -15.844,5.494 0.126,-3.717 z M 58.584,25.077 57.972,43.181 h 10e-4 L 57.808,48.014 76.014,41.701 73.027,70.587 50.799,86.105 V 70.397 l 6.474,-3.371 -0.364,8.51 12.826,-7.96 L 71.279,50.769 50.8,59.952 V 13.334 h 28.039 l -1.824,18.254 -4.288,1.073 0.731,-9.801 -9.389,1.399 v 0 z"
   id="path932" />
</svg>
