<?xml version="1.0" encoding="utf-8"?>
<!-- Generator: Adobe Illustrator 16.0.0, SVG Export Plug-In . SVG Version: 6.00 Build 0)  -->
<!DOCTYPE svg PUBLIC "-//W3C//DTD SVG 1.1//EN" "http://www.w3.org/Graphics/SVG/1.1/DTD/svg11.dtd">
<svg version="1.1"
	 id="svg2" xmlns:svg="http://www.w3.org/2000/svg" xmlns:dc="http://purl.org/dc/elements/1.1/" xmlns:rdf="http://www.w3.org/1999/02/22-rdf-syntax-ns#" xmlns:sodipodi="http://sodipodi.sourceforge.net/DTD/sodipodi-0.dtd" xmlns:inkscape="http://www.inkscape.org/namespaces/inkscape" xmlns:cc="http://creativecommons.org/ns#" inkscape:version="0.48.3.1 r9886" sodipodi:docname="warning_sign_font_awesome.svg"
	 xmlns="http://www.w3.org/2000/svg" xmlns:xlink="http://www.w3.org/1999/xlink" x="0px" y="0px" width="603px" height="555.25px"
	 viewBox="137.445 6.89 603 555.25" enable-background="new 137.445 6.89 603 555.25" xml:space="preserve">
<sodipodi:namedview  inkscape:cy="243.77216" inkscape:cx="156.80493" guidetolerance="10" showgrid="false" borderopacity="1" inkscape:zoom="0.13169643" gridtolerance="10" pagecolor="#ffffff" bordercolor="#666666" objecttolerance="10" id="namedview8" inkscape:current-layer="svg2" inkscape:window-maximized="1" inkscape:window-y="25" inkscape:window-x="0" inkscape:pageopacity="0" inkscape:window-height="719" inkscape:pageshadow="2" inkscape:window-width="1024">
	</sodipodi:namedview>
<g id="g4" transform="matrix(1,0,0,-1,7.5932254,1333.7966)">
	<g id="path6" inkscape:connector-curvature="0">
		<path d="M431.547,1293.104c2.243,0,4.021-0.492,5.942-1.645c2.004-1.202,3.416-2.683,4.58-4.802l252.559-463.022l0.056-0.103
			l0.057-0.101c2.502-4.505,2.438-7.015-0.316-11.703c-1.087-1.854-2.439-3.181-4.392-4.306c-1.899-1.095-3.721-1.583-5.903-1.583
			H178.964c-2.183,0-4.003,0.488-5.908,1.587c-1.947,1.121-3.3,2.448-4.401,4.327c-2.739,4.663-2.804,7.173-0.301,11.678
			l0.056,0.101l0.056,0.103l252.572,463.047c1.162,2.105,2.572,3.58,4.567,4.777
			C427.525,1292.612,429.303,1293.104,431.547,1293.104 M431.547,1323.104c-7.674,0-14.8-1.973-21.377-5.92
			c-6.578-3.947-11.73-9.318-15.458-16.115L142.128,838c-7.674-13.813-7.455-27.627,0.658-41.439
			c3.727-6.359,8.825-11.402,15.293-15.129c6.468-3.729,13.429-5.592,20.884-5.592h505.165c7.455,0,14.416,1.863,20.885,5.592
			c6.469,3.727,11.566,8.77,15.293,15.129c8.113,13.813,8.332,27.626,0.658,41.439l-252.584,463.068
			c-3.727,6.797-8.879,12.168-15.457,16.115S439.221,1323.104,431.547,1323.104L431.547,1323.104z"/>
	</g>
</g>
<g id="g4_1_" transform="matrix(1,0,0,-1,7.5932254,1333.7966)">
	<path id="path6_1_" inkscape:connector-curvature="0" d="M473.645,870.749v62.488c0,3.069-1.043,5.646-3.125,7.729
		c-2.084,2.083-4.549,3.124-7.4,3.124h-63.146c-2.851,0-5.317-1.041-7.399-3.124c-2.084-2.083-3.125-4.659-3.125-7.729v-62.488
		c0-3.069,1.041-5.646,3.125-7.729c2.082-2.083,4.549-3.124,7.399-3.124h63.146c2.852,0,5.316,1.041,7.4,3.124
		C472.602,865.104,473.645,867.68,473.645,870.749z M472.986,993.752l5.92,150.958c0,2.631-1.096,4.714-3.289,6.249
		c-2.85,2.412-5.482,3.618-7.893,3.618h-72.355c-2.412,0-5.043-1.206-7.893-3.618c-2.193-1.535-3.289-3.837-3.289-6.907l5.591-150.3
		c0-2.193,1.097-4.002,3.289-5.427s4.823-2.138,7.894-2.138h60.844c3.068,0,5.645,0.713,7.729,2.138
		C471.615,989.75,472.768,991.559,472.986,993.752z"/>
</g>
</svg>
